<svg width="166.968" height="25.992" viewBox="0 0 166.968 25.992" xmlns="http://www.w3.org/2000/svg"><g id="svgGroup" stroke-linecap="round" fill-rule="evenodd" font-size="9pt" stroke="#00000000" stroke-width="0" fill="#7e6dd1" style="stroke:#00000000;stroke-width:0;fill:#7e6dd1"><path d="M 43.776 12.24 L 43.704 11.484 A 10.56 10.56 0 0 0 41.996 13.394 Q 41.323 14.344 40.734 15.535 A 21.594 21.594 0 0 0 40.14 16.848 Q 39.947 19.167 39.869 20.679 A 56.606 56.606 0 0 0 39.852 21.024 L 34.668 19.728 Q 35.676 13.032 35.856 9.144 L 35.928 7.704 L 41.22 6.48 L 40.356 11.628 A 10.982 10.982 0 0 1 41.625 9.867 A 8.069 8.069 0 0 1 43.56 8.262 A 9.307 9.307 0 0 1 44.934 7.593 Q 45.738 7.285 46.499 7.198 A 5.199 5.199 0 0 1 47.088 7.164 A 7.555 7.555 0 0 1 47.885 8.764 Q 48.167 9.535 48.346 10.449 A 14.385 14.385 0 0 1 48.456 11.088 A 14.115 14.115 0 0 1 49.748 9.376 A 10.897 10.897 0 0 1 51.084 8.1 Q 52.524 6.948 53.568 6.948 A 2.304 2.304 0 0 1 54.954 7.464 Q 56.3 8.47 57.616 11.442 A 26.723 26.723 0 0 1 57.744 11.736 Q 57.252 12.583 56.74 14.415 A 37.09 37.09 0 0 0 56.412 15.678 Q 55.728 18.504 55.584 21.276 A 17.437 17.437 0 0 1 53.687 20.916 Q 51.764 20.429 50.672 19.563 A 4.478 4.478 0 0 1 50.364 19.296 A 54.643 54.643 0 0 0 50.956 16.95 Q 51.588 14.164 51.588 12.456 L 51.588 12.132 L 51.516 11.484 A 6.877 6.877 0 0 0 50.441 12.363 Q 49.549 13.244 48.672 14.616 Q 48.312 16.236 47.88 19.98 Q 46.371 20.494 43.719 20.519 A 29.021 29.021 0 0 1 43.452 20.52 Q 42.948 20.52 42.444 20.484 A 53.281 53.281 0 0 0 43.151 17.684 Q 43.742 15.014 43.805 13.11 A 13.388 13.388 0 0 0 43.812 12.672 A 2.993 2.993 0 0 0 43.807 12.493 Q 43.801 12.401 43.79 12.321 A 1.523 1.523 0 0 0 43.776 12.24 Z M 88.596 19.584 L 87.732 19.98 Q 85.68 19.62 84.312 18.144 Q 83.16 16.934 82.93 15.99 A 1.922 1.922 0 0 1 82.872 15.534 A 6.013 6.013 0 0 1 82.996 14.349 Q 83.113 13.768 83.34 13.14 A 10.707 10.707 0 0 1 84.009 11.665 A 13.855 13.855 0 0 1 84.726 10.494 A 7.686 7.686 0 0 1 86.501 8.659 A 9.319 9.319 0 0 1 87.192 8.19 Q 88.74 7.236 90.54 7.236 A 4.421 4.421 0 0 1 91.794 7.406 A 3.488 3.488 0 0 1 93.204 8.208 Q 94.104 9.072 94.536 10.08 Q 91.63 10.431 90.027 12.1 A 5.829 5.829 0 0 0 89.64 12.546 A 8.901 8.901 0 0 0 88.669 14.064 Q 88.162 15.084 88.051 16.1 A 5.235 5.235 0 0 0 88.02 16.668 L 88.02 17.1 A 0.703 0.703 0 0 0 88.112 17.051 Q 88.365 16.9 89.082 16.344 A 19.652 19.652 0 0 0 89.802 15.759 Q 90.151 15.461 90.444 15.178 A 11.182 11.182 0 0 0 90.576 15.048 A 16.273 16.273 0 0 0 93.204 11.679 A 18.088 18.088 0 0 0 93.276 11.556 L 94.644 5.58 A 9.721 9.721 0 0 1 96.107 5.872 Q 96.927 6.106 97.596 6.48 Q 98.556 7.017 98.985 7.487 A 1.781 1.781 0 0 1 99.18 7.74 L 99.54 8.316 Q 99.36 9.684 98.874 10.944 A 15.053 15.053 0 0 1 98.605 11.599 Q 98.329 12.224 98.072 12.614 A 3.307 3.307 0 0 1 97.956 12.78 L 97.56 13.356 Q 97.488 19.224 94.5 22.608 A 9.757 9.757 0 0 1 88.848 25.746 A 14.5 14.5 0 0 1 86.112 25.992 A 2.166 2.166 0 0 1 85.685 25.719 Q 85.301 25.412 84.891 24.868 A 7.963 7.963 0 0 1 84.816 24.768 Q 83.484 23.004 82.764 20.952 Q 83.63 21.443 85.516 21.54 A 19.339 19.339 0 0 0 86.508 21.564 A 6.593 6.593 0 0 0 88.465 21.287 A 5.236 5.236 0 0 0 90.792 19.818 A 8.309 8.309 0 0 0 92.842 15.781 A 9.955 9.955 0 0 0 92.88 15.588 Q 91.98 16.992 90.702 18.09 Q 89.594 19.042 88.825 19.466 A 4.465 4.465 0 0 1 88.596 19.584 Z M 17.748 1.296 L 18.756 1.08 Q 17.316 5.832 16.452 11.196 A 14.634 14.634 0 0 1 14.98 10.442 Q 14.275 10.031 13.533 9.511 A 24.344 24.344 0 0 1 13.32 9.36 Q 11.839 8.297 10.847 7.235 A 11.331 11.331 0 0 1 10.62 6.984 Q 7.596 11.268 7.02 16.272 L 11.772 15.012 A 17.387 17.387 0 0 1 12.047 12.774 A 19.513 19.513 0 0 1 12.132 12.348 A 17.48 17.48 0 0 0 14.453 12.81 Q 16.116 13.032 18.108 13.032 Q 17.241 14.899 15.572 19.945 A 256.866 256.866 0 0 0 15.3 20.772 L 14.652 22.68 A 2.96 2.96 0 0 1 13.412 21.772 Q 12.65 20.864 12.168 19.188 A 17.316 17.316 0 0 1 9.306 20.403 Q 7.936 20.852 6.359 21.156 A 29.138 29.138 0 0 1 5.904 21.24 A 18.445 18.445 0 0 1 3.51 20.1 Q 1.076 18.7 0 16.848 A 15.643 15.643 0 0 1 0.514 12.977 Q 0.951 11.265 1.76 9.438 A 28.995 28.995 0 0 1 2.34 8.208 A 22.681 22.681 0 0 1 3.78 5.708 Q 5.546 3.079 7.596 2.016 A 23.495 23.495 0 0 1 9.358 2.079 A 19.001 19.001 0 0 1 10.476 2.196 Q 13.567 2.046 15.864 1.673 A 24.877 24.877 0 0 0 17.748 1.296 Z M 106.128 20.016 L 104.184 20.304 L 112.572 9.324 Q 110.16 9.36 108.27 10.026 Q 106.38 10.692 105.696 11.34 L 105.012 11.988 A 23.474 23.474 0 0 1 105.678 7.455 A 21.404 21.404 0 0 1 105.894 6.66 Q 106.491 4.623 107.052 3.503 A 6.46 6.46 0 0 1 107.316 3.024 L 107.964 1.908 A 2.155 2.155 0 0 0 108.161 2.01 Q 108.584 2.207 109.512 2.502 A 11.543 11.543 0 0 0 110.94 2.853 A 15.005 15.005 0 0 0 112.176 3.024 A 89.397 89.397 0 0 0 114.344 3.178 Q 115.408 3.239 116.334 3.262 A 42.711 42.711 0 0 0 117.396 3.276 A 41.924 41.924 0 0 0 120.208 3.178 A 50.964 50.964 0 0 0 122.004 3.024 L 114.192 14.76 Q 116.064 14.616 117.846 13.842 Q 119.447 13.147 120.278 12.524 A 4.79 4.79 0 0 0 120.456 12.384 L 121.284 11.664 A 58.917 58.917 0 0 0 120.556 14.57 Q 119.946 17.324 119.858 19.28 A 14.147 14.147 0 0 0 119.844 19.908 A 189.192 189.192 0 0 0 118.073 19.798 Q 115.603 19.656 114.2 19.656 A 17.099 17.099 0 0 0 114.192 19.656 Q 109.82 19.656 107.193 19.898 A 27.74 27.74 0 0 0 106.128 20.016 Z M 76.32 12.132 L 76.248 11.484 A 12.092 12.092 0 0 0 74.842 12.935 Q 73.503 14.547 72.18 17.028 Q 72 18.324 71.82 20.628 A 13.719 13.719 0 0 1 70.163 20.139 A 11.396 11.396 0 0 1 69.264 19.764 A 20.54 20.54 0 0 1 68.731 19.505 Q 68.214 19.244 67.887 19.034 A 3.602 3.602 0 0 1 67.644 18.864 L 67.176 18.468 Q 67.392 13.32 68.004 9.108 L 68.184 7.704 L 74.448 6.336 A 20.189 20.189 0 0 0 74.002 7.706 Q 73.583 9.147 73.177 11.141 A 71.988 71.988 0 0 0 73.044 11.808 A 19.935 19.935 0 0 1 74.031 10.244 Q 74.866 9.054 75.744 8.244 Q 77.074 7.017 78.177 6.952 A 2.087 2.087 0 0 1 78.3 6.948 A 2.304 2.304 0 0 1 79.686 7.464 Q 81.032 8.47 82.348 11.442 A 26.723 26.723 0 0 1 82.476 11.736 Q 82.224 12.24 81.828 13.158 A 8.177 8.177 0 0 0 81.627 13.683 Q 81.306 14.598 80.848 16.34 A 90.492 90.492 0 0 0 80.748 16.722 A 24.424 24.424 0 0 0 80.114 20.11 A 20.773 20.773 0 0 0 79.992 21.816 A 20.916 20.916 0 0 1 78.097 21.131 Q 76.231 20.344 75.168 19.364 A 5.98 5.98 0 0 1 75.096 19.296 A 54.643 54.643 0 0 0 75.688 16.95 Q 76.32 14.164 76.32 12.456 L 76.32 12.132 Z M 146.484 12.132 L 146.412 11.484 A 12.092 12.092 0 0 0 145.006 12.935 Q 143.667 14.547 142.344 17.028 Q 142.164 18.324 141.984 20.628 A 13.719 13.719 0 0 1 140.327 20.139 A 11.396 11.396 0 0 1 139.428 19.764 A 20.54 20.54 0 0 1 138.895 19.505 Q 138.378 19.244 138.051 19.034 A 3.602 3.602 0 0 1 137.808 18.864 L 137.34 18.468 Q 137.556 13.32 138.168 9.108 L 138.348 7.704 L 144.612 6.336 A 20.189 20.189 0 0 0 144.166 7.706 Q 143.747 9.147 143.341 11.141 A 71.988 71.988 0 0 0 143.208 11.808 A 19.935 19.935 0 0 1 144.195 10.244 Q 145.03 9.054 145.908 8.244 Q 147.238 7.017 148.341 6.952 A 2.087 2.087 0 0 1 148.464 6.948 A 2.304 2.304 0 0 1 149.85 7.464 Q 151.196 8.47 152.512 11.442 A 26.723 26.723 0 0 1 152.64 11.736 Q 152.388 12.24 151.992 13.158 A 8.177 8.177 0 0 0 151.791 13.683 Q 151.47 14.598 151.012 16.34 A 90.492 90.492 0 0 0 150.912 16.722 A 24.424 24.424 0 0 0 150.278 20.11 A 20.773 20.773 0 0 0 150.156 21.816 A 20.916 20.916 0 0 1 148.261 21.131 Q 146.395 20.344 145.332 19.364 A 5.98 5.98 0 0 1 145.26 19.296 A 54.643 54.643 0 0 0 145.852 16.95 Q 146.484 14.164 146.484 12.456 L 146.484 12.132 Z M 164.952 16.416 L 166.032 15.876 A 3.749 3.749 0 0 1 166.094 16.312 A 3.111 3.111 0 0 1 166.104 16.56 A 3.537 3.537 0 0 1 165.743 18.085 Q 165.506 18.586 165.113 19.087 A 7.051 7.051 0 0 1 164.88 19.368 A 6.156 6.156 0 0 1 163.328 20.587 Q 162.557 21.026 161.568 21.362 A 16.269 16.269 0 0 1 159.588 21.888 A 11.561 11.561 0 0 1 159.221 21.832 Q 158.784 21.76 158.202 21.636 Q 157.37 21.459 155.563 20.568 A 39.52 39.52 0 0 1 155.502 20.538 A 9.527 9.527 0 0 1 154.17 19.746 Q 153.471 19.244 152.974 18.659 A 5.461 5.461 0 0 1 152.712 18.324 A 19.07 19.07 0 0 1 153.326 14.835 A 22.44 22.44 0 0 1 153.702 13.59 A 37.333 37.333 0 0 1 154.187 12.218 Q 154.655 10.979 155.09 10.158 A 9.317 9.317 0 0 1 155.232 9.9 L 155.952 8.64 Q 157.968 8.532 159.948 7.992 Q 161.565 7.551 162.486 7.158 A 6.943 6.943 0 0 0 162.864 6.984 L 163.836 6.48 Q 165.168 7.236 165.942 8.532 A 9.968 9.968 0 0 1 166.356 9.294 Q 166.729 10.065 166.816 10.665 A 2.75 2.75 0 0 1 166.824 10.728 L 166.968 11.664 A 7.039 7.039 0 0 1 163.947 14.958 A 8.904 8.904 0 0 1 163.584 15.156 Q 161.208 16.38 158.616 16.56 Q 158.508 17.028 158.4 17.712 A 6.138 6.138 0 0 0 158.625 17.728 Q 159.003 17.748 159.624 17.748 A 4.951 4.951 0 0 0 160.141 17.717 Q 160.673 17.66 161.42 17.501 A 25.504 25.504 0 0 0 162.144 17.334 Q 163.836 16.92 164.952 16.416 Z M 32.688 19.8 L 29.556 21.24 A 3.746 3.746 0 0 1 28.146 20.601 Q 27.375 20.018 27.015 19.008 A 4.942 4.942 0 0 1 26.82 18.288 Q 25.884 19.368 24.75 20.124 A 7.035 7.035 0 0 1 24.15 20.485 Q 23.406 20.88 22.86 20.88 Q 21.168 20.88 19.782 19.368 A 7.251 7.251 0 0 1 19.081 18.483 Q 18.396 17.45 18.396 16.488 A 7.372 7.372 0 0 1 18.594 14.829 A 9.728 9.728 0 0 1 18.972 13.59 A 12.112 12.112 0 0 1 20.308 11.04 A 13.798 13.798 0 0 1 20.592 10.638 A 7.587 7.587 0 0 1 22.514 8.821 A 9.389 9.389 0 0 1 23.4 8.298 A 8.574 8.574 0 0 1 25.092 7.624 A 6.659 6.659 0 0 1 26.856 7.38 Q 28.299 7.38 29.061 7.773 A 1.967 1.967 0 0 1 29.304 7.92 L 30.24 6.048 A 7.652 7.652 0 0 1 32.224 7.129 A 7.17 7.17 0 0 1 32.472 7.326 Q 33.444 8.136 33.804 8.712 L 34.164 9.288 Q 33.624 11.34 32.364 13.32 L 31.968 13.968 L 31.968 14.508 A 21.558 21.558 0 0 0 32.106 17.009 Q 32.283 18.524 32.688 19.8 Z M 122.544 17.244 L 122.004 16.596 A 14.196 14.196 0 0 1 122.3 13.902 A 12.408 12.408 0 0 1 122.598 12.762 Q 123.025 11.398 123.569 10.424 A 7.592 7.592 0 0 1 123.912 9.864 A 22.781 22.781 0 0 1 124.697 8.825 Q 125.838 7.407 126.756 6.84 L 127.296 6.48 Q 128.844 6.912 130.356 7.488 L 132.66 5.328 Q 134.28 6.048 135.252 7.722 A 7.055 7.055 0 0 1 136.087 10.067 A 9.551 9.551 0 0 1 136.224 11.718 A 7.628 7.628 0 0 1 135.667 14.65 A 7.267 7.267 0 0 1 135.018 15.876 Q 133.812 17.712 132.174 18.684 A 25.583 25.583 0 0 1 130.808 19.442 Q 129.951 19.882 129.186 20.178 A 15.888 15.888 0 0 1 128.577 20.4 Q 127.727 20.69 127.29 20.7 A 1.339 1.339 0 0 1 127.26 20.7 Q 125.712 19.944 124.398 18.918 Q 123.305 18.065 122.748 17.473 A 5.065 5.065 0 0 1 122.544 17.244 Z M 59.076 18.9 L 58.68 18.468 A 47.692 47.692 0 0 1 58.82 14.743 A 38.39 38.39 0 0 1 59.076 12.384 Q 59.37 10.3 59.664 9.128 A 8.723 8.723 0 0 1 59.868 8.424 L 60.264 7.236 Q 63.504 7.812 66.06 8.892 L 66.924 9.252 A 2.479 2.479 0 0 0 66.763 9.479 Q 66.442 9.979 65.88 11.16 Q 65.16 12.672 64.728 14.022 Q 64.399 15.049 64.123 16.451 A 37.078 37.078 0 0 0 63.954 17.37 Q 63.612 19.368 63.612 20.43 L 63.612 21.672 A 26.783 26.783 0 0 1 62.109 20.931 Q 61.363 20.532 60.732 20.124 Q 59.508 19.332 59.076 18.9 Z M 63.612 0.504 L 63.972 0 A 15.76 15.76 0 0 1 65.769 0.398 Q 66.677 0.658 67.439 1.016 A 9.159 9.159 0 0 1 67.716 1.152 L 68.256 1.44 Q 68.188 1.885 68.07 2.557 A 106.577 106.577 0 0 1 68.058 2.628 Q 67.934 3.336 67.288 4.932 A 39.845 39.845 0 0 1 67.266 4.986 Q 66.767 6.214 66.136 7.007 A 4.855 4.855 0 0 1 65.7 7.488 A 7.55 7.55 0 0 1 65.407 7.358 Q 65.06 7.196 64.602 6.948 A 4.196 4.196 0 0 1 64.226 6.714 Q 63.612 6.292 62.631 5.404 A 36.065 36.065 0 0 1 62.586 5.364 Q 61.236 4.14 60.732 2.772 Q 61.632 2.376 62.442 1.674 A 15.751 15.751 0 0 0 62.883 1.278 Q 63.359 0.833 63.612 0.504 Z M 26.79 15.583 A 10.85 10.85 0 0 0 26.82 15.552 A 21.564 21.564 0 0 1 27.563 12.342 A 29.335 29.335 0 0 1 28.692 9.324 Q 25.956 10.836 24.588 13.248 A 11.795 11.795 0 0 0 23.999 14.433 Q 23.744 15.036 23.612 15.579 A 4.629 4.629 0 0 0 23.472 16.668 Q 23.472 16.992 23.544 17.316 L 23.616 17.316 Q 25.115 17.316 26.79 15.583 Z M 132.408 12.348 L 130.392 10.656 Q 128.052 13.86 127.8 17.316 Q 127.944 17.28 128.178 17.226 A 1.205 1.205 0 0 0 128.3 17.189 Q 128.497 17.121 128.845 16.953 A 15.485 15.485 0 0 0 129.06 16.848 Q 129.708 16.524 130.284 16.038 A 4.181 4.181 0 0 0 130.712 15.616 Q 130.919 15.382 131.13 15.089 A 9.822 9.822 0 0 0 131.472 14.58 Q 132.084 13.608 132.408 12.348 Z M 162.135 12.086 A 1.052 1.052 0 0 0 162.144 11.952 Q 162.144 11.484 161.838 11.214 A 1.072 1.072 0 0 0 161.127 10.944 A 1.364 1.364 0 0 0 161.1 10.944 Q 160.668 10.944 160.272 11.016 A 18.393 18.393 0 0 1 160.124 11.511 Q 159.869 12.328 159.332 13.904 A 301.295 301.295 0 0 1 158.976 14.94 A 3.734 3.734 0 0 0 161.514 13.374 A 5.099 5.099 0 0 0 161.676 13.14 Q 162.079 12.52 162.135 12.086 Z" vector-effect="non-scaling-stroke"/></g></svg>